<svg width="17" height="16" viewBox="0 0 17 16" fill="none" xmlns="http://www.w3.org/2000/svg">
<path d="M9.25245 0.0135C10.125 0 10.9925 0.008 11.859 0C11.9115 1.0205 12.2785 2.06 13.0255 2.7815C13.771 3.521 14.8255 3.8595 15.8515 3.974V6.6585C14.89 6.627 13.924 6.427 13.0515 6.013C12.6715 5.841 12.3175 5.6195 11.971 5.393C11.9665 7.341 11.979 9.2865 11.9585 11.2265C11.9065 12.1585 11.599 13.086 11.057 13.854C10.185 15.1325 8.67145 15.966 7.11695 15.992C6.16345 16.0465 5.21095 15.7865 4.39845 15.3075C3.05195 14.5135 2.10445 13.06 1.96645 11.5C1.94907 11.1696 1.9464 10.8386 1.95845 10.508C2.07845 9.2395 2.70595 8.026 3.67995 7.2005C4.78395 6.239 6.33045 5.781 7.77845 6.052C7.79195 7.0395 7.75245 8.026 7.75245 9.0135C7.09095 8.7995 6.31795 8.8595 5.73995 9.261C5.31707 9.53958 4.9975 9.94945 4.83045 10.4275C4.69245 10.7655 4.73195 11.141 4.73995 11.5C4.89845 12.594 5.95045 13.5135 7.07345 13.414C7.81795 13.406 8.53145 12.974 8.91945 12.3415C9.04495 12.12 9.18545 11.8935 9.19295 11.633C9.25845 10.4405 9.23245 9.253 9.24045 8.0605C9.24595 5.373 9.23245 2.693 9.25295 0.014L9.25245 0.0135Z" fill="black"/>
</svg>
