<svg width="17" height="16" viewBox="0 0 17 16" fill="none" xmlns="http://www.w3.org/2000/svg">
<g clip-path="url(#clip0_1_551)">
<path d="M8.89844 0C6.72744 0 6.45444 0.01 5.60144 0.048C4.74844 0.088 4.16744 0.222 3.65844 0.42C3.12453 0.620819 2.64093 0.935826 2.24144 1.343C1.83451 1.7427 1.51954 2.22624 1.31844 2.76C1.12044 3.268 0.985437 3.85 0.946438 4.7C0.908438 5.555 0.898438 5.827 0.898438 8.001C0.898438 10.173 0.908438 10.445 0.946438 11.298C0.986437 12.15 1.12044 12.731 1.31844 13.24C1.52344 13.766 1.79644 14.212 2.24144 14.657C2.68544 15.102 3.13144 15.376 3.65744 15.58C4.16744 15.778 4.74744 15.913 5.59944 15.952C6.45344 15.99 6.72544 16 8.89844 16C11.0714 16 11.3424 15.99 12.1964 15.952C13.0474 15.912 13.6304 15.778 14.1394 15.58C14.673 15.3791 15.1563 15.0641 15.5554 14.657C16.0004 14.212 16.2734 13.766 16.4784 13.24C16.6754 12.731 16.8104 12.15 16.8504 11.298C16.8884 10.445 16.8984 10.173 16.8984 8C16.8984 5.827 16.8884 5.555 16.8504 4.701C16.8104 3.85 16.6754 3.268 16.4784 2.76C16.2774 2.22623 15.9624 1.74268 15.5554 1.343C15.1561 0.935676 14.6724 0.620645 14.1384 0.42C13.6284 0.222 13.0464 0.087 12.1954 0.048C11.3414 0.01 11.0704 0 8.89644 0H8.89944H8.89844ZM8.18144 1.442H8.89944C11.0354 1.442 11.2884 1.449 12.1314 1.488C12.9114 1.523 13.3354 1.654 13.6174 1.763C13.9904 1.908 14.2574 2.082 14.5374 2.362C14.8174 2.642 14.9904 2.908 15.1354 3.282C15.2454 3.563 15.3754 3.987 15.4104 4.767C15.4494 5.61 15.4574 5.863 15.4574 7.998C15.4574 10.133 15.4494 10.387 15.4104 11.23C15.3754 12.01 15.2444 12.433 15.1354 12.715C15.0072 13.0624 14.8025 13.3764 14.5364 13.634C14.2564 13.914 13.9904 14.087 13.6164 14.232C13.3364 14.342 12.9124 14.472 12.1314 14.508C11.2884 14.546 11.0354 14.555 8.89944 14.555C6.76344 14.555 6.50944 14.546 5.66644 14.508C4.88644 14.472 4.46344 14.342 4.18144 14.232C3.83394 14.1039 3.51956 13.8996 3.26144 13.634C2.99519 13.376 2.79016 13.0617 2.66144 12.714C2.55244 12.433 2.42144 12.009 2.38644 11.229C2.34844 10.386 2.34044 10.133 2.34044 7.996C2.34044 5.86 2.34844 5.608 2.38644 4.765C2.42244 3.985 2.55244 3.561 2.66244 3.279C2.80744 2.906 2.98144 2.639 3.26144 2.359C3.54144 2.079 3.80744 1.906 4.18144 1.761C4.46344 1.651 4.88644 1.521 5.66644 1.485C6.40444 1.451 6.69044 1.441 8.18144 1.44V1.442ZM13.1694 2.77C13.0434 2.77 12.9185 2.79483 12.8021 2.84308C12.6856 2.89132 12.5798 2.96203 12.4906 3.05118C12.4015 3.14032 12.3308 3.24615 12.2825 3.36262C12.2343 3.4791 12.2094 3.60393 12.2094 3.73C12.2094 3.85607 12.2343 3.9809 12.2825 4.09738C12.3308 4.21385 12.4015 4.31968 12.4906 4.40882C12.5798 4.49797 12.6856 4.56868 12.8021 4.61692C12.9185 4.66517 13.0434 4.69 13.1694 4.69C13.424 4.69 13.6682 4.58886 13.8483 4.40882C14.0283 4.22879 14.1294 3.98461 14.1294 3.73C14.1294 3.47539 14.0283 3.23121 13.8483 3.05118C13.6682 2.87114 13.424 2.77 13.1694 2.77ZM8.89944 3.892C8.35451 3.8835 7.81333 3.98349 7.30742 4.18614C6.8015 4.3888 6.34095 4.69007 5.95259 5.07242C5.56422 5.45478 5.2558 5.91057 5.04528 6.41326C4.83476 6.91595 4.72634 7.4555 4.72634 8.0005C4.72634 8.5455 4.83476 9.08505 5.04528 9.58774C5.2558 10.0904 5.56422 10.5462 5.95259 10.9286C6.34095 11.3109 6.8015 11.6122 7.30742 11.8149C7.81333 12.0175 8.35451 12.1175 8.89944 12.109C9.97798 12.0922 11.0067 11.6519 11.7634 10.8833C12.5202 10.1146 12.9443 9.07917 12.9443 8.0005C12.9443 6.92183 12.5202 5.88641 11.7634 5.11775C11.0067 4.34909 9.97798 3.90883 8.89944 3.892ZM8.89944 5.333C9.60677 5.333 10.2851 5.61399 10.7853 6.11415C11.2855 6.61431 11.5664 7.29267 11.5664 8C11.5664 8.70733 11.2855 9.38569 10.7853 9.88585C10.2851 10.386 9.60677 10.667 8.89944 10.667C8.19211 10.667 7.51374 10.386 7.01358 9.88585C6.51342 9.38569 6.23244 8.70733 6.23244 8C6.23244 7.29267 6.51342 6.61431 7.01358 6.11415C7.51374 5.61399 8.19211 5.333 8.89944 5.333Z" fill="black"/>
</g>
<defs>
<clipPath id="clip0_1_551">
<rect width="16" height="16" fill="white" transform="translate(0.898438)"/>
</clipPath>
</defs>
</svg>
