<svg width="24" height="16" viewBox="0 0 24 16" fill="none" xmlns="http://www.w3.org/2000/svg">
<path d="M23.3165 2.46783C23.1835 1.9924 22.93 1.55937 22.5806 1.21066C22.2311 0.861951 21.7975 0.609382 21.3218 0.47741C19.5361 2.28087e-05 12.3574 2.29386e-05 12.3574 2.29386e-05C12.3574 2.29386e-05 5.19228 -0.0114288 3.38795 0.47741C2.91299 0.609962 2.48026 0.862795 2.13159 1.21147C1.78291 1.56015 1.53008 1.99288 1.39752 2.46783C1.05841 4.29595 0.891397 6.15182 0.898665 8.01111C0.895356 9.86145 1.06235 11.7082 1.39752 13.5279C1.5305 14.0031 1.78341 14.4362 2.13197 14.7855C2.48053 15.1348 2.91303 15.3886 3.38795 15.5226C5.17367 16 12.3574 16 12.3574 16C12.3574 16 19.5182 16 21.3218 15.5226C21.7975 15.3892 22.2308 15.1356 22.5802 14.7863C22.9295 14.4369 23.1831 14.0036 23.3165 13.5279C23.645 11.7092 23.8054 9.85982 23.7939 8.01111C23.8054 6.15023 23.6486 4.29794 23.3165 2.46783ZM10.0642 11.4373V4.56991L16.0398 8.01111L10.0642 11.4373Z" fill="black"/>
</svg>
